<svg id="Lager_1" data-name="Lager 1" xmlns="http://www.w3.org/2000/svg" viewBox="0 0 101.58 101.62"><defs><style>.cls-1{fill:#fff;}</style></defs><title>ecommerce-icon-search</title><path class="cls-1" d="M60.62,24.9a25.33,25.33,0,0,0-11.83-6.67A4,4,0,1,0,46.88,26,17.43,17.43,0,0,1,55,30.56a17.14,17.14,0,0,1,5,12.21,4,4,0,0,0,8,0A25.11,25.11,0,0,0,60.62,24.9Z" transform="translate(0.05 0.08)"/><path class="cls-1" d="M100.36,94.71,75.69,70.05A42.8,42.8,0,1,0,70,75.7L94.7,100.36a4,4,0,0,0,5.66-5.66ZM42.76,77.54A34.77,34.77,0,1,1,67.34,67.36,34.77,34.77,0,0,1,42.76,77.54Z" transform="translate(0.05 0.08)"/></svg>