<svg id="Layer_1" data-name="Layer 1" xmlns="http://www.w3.org/2000/svg" viewBox="0 0 761.46 64.81"><defs><style>.cls-1{fill:#fff;}</style></defs><title>5b3339b84ca855020ba2c2e5_investerarbrevet-logotyp-web</title><path class="cls-1" d="M25.7,56.7c-3.19,5-5.88,8-12.51,8S1.34,62,1.34,54.6a48,48,0,0,1,1.1-8L6.64,25H0l.08-1H24.36c-3.7,18-4.62,22.43-5.88,29.15a37,37,0,0,0-.84,6.38A1.64,1.64,0,0,0,19,61.37h.29c1.43,0,3-1.34,5.46-5.21ZM7.64,12.94c0-6.14,5.63-9.66,11.85-9.66,5.12,0,8.23,2.43,8.23,6.72,0,6.13-5.63,9.57-11.68,9.57C9.41,19.57,7.64,15.88,7.64,12.94Z" transform="translate(0 0)"/><path class="cls-1" d="M52.67,54.68c0-5.2,4.2-18,4.95-20.58,1.51-5.12,2-7.3.09-7.3-2.1,0-3.53,2.18-5.63,6.13-4.7,8.9-5.88,22.43-6.47,30.57-2.6-.08-16.3.34-18.65.84l3.7-15.79L34.27,25h-6l.08-1H51.57L48.38,37.46l.34.09C52.33,29,54.85,23.1,64.43,23.1c7.14,0,10.24,3.61,10.24,9.16a26.4,26.4,0,0,1-.84,6.13l-4,16a21.82,21.82,0,0,0-.92,5c0,1.51.67,2,1.85,2,1.42,0,3.1-.92,5.63-5.37l.92.5c-2.69,4.79-5.46,8.15-12.52,8.15C58.21,64.68,52.67,62,52.67,54.68Z" transform="translate(0 0)"/><path class="cls-1" d="M112.05,35.7c-3.19-.67-5.29-2.6-5.29-6a6.37,6.37,0,0,1,6.08-6.64h.64c6.39,0,7.73,5.88,7.73,10.42,0,12.09-5.71,31.24-26.8,31.24C87,64.76,80.13,61,81.9,50.32c1.17-7.06,2.85-13.28,4.28-20,.51-2.68.42-3.44-.67-3.44s-3.11,1.68-6.13,5.38l-.84-.59c5.12-7,9.58-8.57,14.78-8.57,4.29,0,10.42,1.43,10.42,8.48A30.58,30.58,0,0,1,103,37.3c-.92,4.62-2.18,9.57-3.69,17.38a19.22,19.22,0,0,0-.51,4c0,1.85.59,3.45,3.19,3.45,6.89,0,16.89-10.92,16.89-22.85,0-5-1.68-6.81-4.45-6.89Z" transform="translate(0 0)"/><path class="cls-1" d="M162.79,31.84c0,10-12.18,12.26-20.33,12.26H140.7l-.59,3.28a36,36,0,0,0-.59,6.13c0,6.21,2.61,8.4,7.39,8.4,4,0,8.91-2.94,11.68-12.27l1.18.34c-2.86,10.5-9.16,14.78-19.24,14.78C129.7,64.76,123,59.05,123,49.14c0-17.81,10.84-26,25.71-26C158.59,23.1,162.79,26.46,162.79,31.84ZM150,29.32c.42-3.87,0-5.3-1.85-5.3-3.36,0-4.53,5.13-6,12.69l-1.26,6.38c4.11.09,7.47-2.77,8.65-10.5Z" transform="translate(0 0)"/><path class="cls-1" d="M184.63,56.62c0-4.2-4.45-5.55-9.07-7.4-5.13-2-10.5-4.53-10.5-12.09,0-9.41,9.07-14,21.17-14a38.53,38.53,0,0,1,5.37.34c-2.52-2.52-5.79-7.56-5.79-12.18,0-5.49,3.19-10.2,10.19-10.2,7.9,0,11.59,7.65,15.37,9.41,3.78-8,12-10.5,19-10.5,5,0,7.89,1.6,7.89,5,0,5.38-5.21,8.23-10.41,8.57L226,23.94h8.07l-.26,1H226L222.35,43c-1.35,6.63-2,10.08-2,13.27,0,2.6.67,4.54,3,4.54,2.52,0,4.79-3.28,6.81-9.08l1.17.34c-2.43,6.8-5.54,12.68-14.44,12.68-10.67,0-13.28-5.88-13.28-10.83a68.62,68.62,0,0,1,1.68-11.85L208.57,25h-6l.25-1h6L211,11.84c-4.54-1.84-8.07-9.49-15.29-9.49-5.55,0-8.4,3.61-8.4,8.74,0,5.29,4.79,11.51,7.64,12.85,3.61,1.68,6.81,3.44,6.81,7.64,0,3.87-2.78,6.3-7.14,6.3-3,0-6-1.51-6-4.11a6.26,6.26,0,0,1,1.26-4h2.69a5.43,5.43,0,0,0,.59-2.27c0-2.44-2.61-3.19-5.63-3.19-6.47,0-8.74,3.1-8.74,5.71,0,3.44,3.78,5.12,8.07,7,5.79,2.44,12.51,5,12.51,12,0,10.67-9.82,15.79-22.84,15.79-9.41,0-16.13-2.77-16.13-9.15,0-4.79,3.19-7.14,7-7.14,4.29,0,6.22,2.35,6.22,5.29a12,12,0,0,1-.75,3.7h-3.53a3.74,3.74,0,0,0-.76,2.1c0,1.84,1.68,3.86,7.14,3.86C183.45,63.42,184.63,58.88,184.63,56.62ZM228,12.35c4.2-.42,8.57-2.52,8.57-7.23,0-2.52-1.59-3.61-3.19-3.61-2.6,0-3.86,2-4.37,4.79Z" transform="translate(0 0)"/><path class="cls-1" d="M272.33,31.84c0,10-12.18,12.26-20.33,12.26h-1.77l-.58,3.28a36,36,0,0,0-.59,6.13c0,6.21,2.6,8.4,7.39,8.4,3.95,0,8.9-2.94,11.68-12.27l1.17.34c-2.85,10.5-9.15,14.78-19.23,14.78-10.84,0-17.56-5.71-17.56-15.62,0-17.81,10.84-26,25.7-26C268.13,23.1,272.33,26.46,272.33,31.84Zm-12.77-2.52c.42-3.87,0-5.3-1.85-5.3-3.36,0-4.54,5.13-6,12.69l-1.26,6.38c4.12.09,7.48-2.77,8.65-10.5Z" transform="translate(0 0)"/><path class="cls-1" d="M276.11,47.38,279.46,25h-5.54l.17-1h22.68L293,38.56l.34.08c2.26-6.3,6-15.54,15.54-15.54,3.61,0,8,1.68,8,7.56s-4,8.65-8.57,8.65a13.77,13.77,0,0,1-6-1.51l-.59-7.31c-3.61,0-7.39,6.05-9.15,16.63-1.52,9.33-1.77,13-1.6,16.38-3.61-.25-14,.51-18.56,1.1Z" transform="translate(0 0)"/><path class="cls-1" d="M364.47,57.12c-3.19,5.46-6.55,7.64-11.25,7.64-8.49,0-12.52-4.28-11.51-11.34-.17,0-.25-.08-.42-.08-1.85,5.54-3.44,11.42-11.09,11.42-10.08,0-13.61-5.71-13.61-14,0-16.72,7.06-27.64,20.16-27.64,4.71,0,6.56,1.93,7.4,5l.84-3.78c3.27.33,14.19,0,17.64-.76-2.1,10.33-4.54,21.08-6.39,32.76-.33,2.27-1.09,5.38,1.68,5.38,1.26,0,2.86-.68,5.63-5.13ZM343.14,32.59c0-5.88-1-7.56-2.94-7.56s-2.61,1.77-3.78,8.74l-3.19,19c-1.1,6.39-1.18,8.91,1.51,8.91C339.27,61.66,343.14,44.6,343.14,32.59Z" transform="translate(0 0)"/><path class="cls-1" d="M368.84,47.38,372.2,25h-5.54l.17-1h22.68l-3.78,14.62.33.08c2.27-6.3,6.05-15.54,15.54-15.54,3.61,0,8,1.68,8,7.56s-4,8.65-8.57,8.65a13.65,13.65,0,0,1-6-1.57l-.58-7.31c-3.61,0-7.39,6.05-9.16,16.63-1.51,9.33-1.76,13-1.59,16.38-3.62-.25-14,.51-18.57,1.1Z" transform="translate(0 0)"/><path class="cls-1" d="M418.82,2H411.6l.17-1.1h25.45L430,30.74l.17.09c1.93-3.78,4.62-7.73,11.51-7.73,8.57,0,12.18,5.88,12.18,14.53,0,14.45-7,27.13-24.7,27.13-13.35,0-18.31-7.14-18.31-17.38a39,39,0,0,1,.76-6.64ZM427,56.53c0,4.79.76,7.06,2.86,7.06s3.1-2.19,4.62-11.09l3-18.31c.84-5.38.42-7.39-1.76-7.39C429.66,26.8,427,49.9,427,56.53Z" transform="translate(0 0)"/><path class="cls-1" d="M459.31,47.38,462.67,25h-5.54l.16-1H480l-3.78,14.62.34.08c2.27-6.3,6.05-15.54,15.54-15.54,3.61,0,8,1.68,8,7.56s-4,8.65-8.57,8.65a13.67,13.67,0,0,1-6-1.51l-.58-7.31c-3.62,0-7.4,6.05-9.16,16.63-1.51,9.33-1.76,13-1.6,16.38-3.61-.25-14,.51-18.56,1.1Z" transform="translate(0 0)"/><path class="cls-1" d="M538.44,31.84c0,10-12.18,12.26-20.33,12.26h-1.76l-.59,3.28a36,36,0,0,0-.59,6.13c0,6.21,2.6,8.4,7.39,8.4,4,0,8.91-2.94,11.68-12.27l1.17.34c-2.85,10.5-9.15,14.78-19.23,14.78-10.84,0-17.56-5.71-17.56-15.62,0-17.81,10.84-26,25.71-26C534.24,23.1,538.44,26.46,538.44,31.84Zm-12.77-2.52c.42-3.87,0-5.3-1.85-5.3-3.36,0-4.53,5.13-6.05,12.69l-1.26,6.38c4.12.09,7.48-2.77,8.66-10.5Z" transform="translate(0 0)"/><path class="cls-1" d="M572.12,35.7c-3.19-.67-5.29-2.6-5.29-6a6.37,6.37,0,0,1,6.08-6.64h.64c6.38,0,7.73,5.88,7.73,10.42,0,12.09-5.71,31.24-26.8,31.24-7.39,0-14.28-3.78-12.51-14.44,1.17-7.06,2.85-13.28,4.28-20,.5-2.68.42-3.44-.67-3.44s-3.11,1.68-6.13,5.38l-.84-.59c5.12-7,9.57-8.57,14.78-8.57,4.28,0,10.42,1.43,10.42,8.48a30.61,30.61,0,0,1-.76,5.72c-.92,4.62-2.18,9.57-3.7,17.38a19.9,19.9,0,0,0-.5,4c0,1.85.59,3.45,3.19,3.45,6.89,0,16.89-10.92,16.89-22.85,0-5-1.68-6.81-4.46-6.89Z" transform="translate(0 0)"/><path class="cls-1" d="M622.86,31.84c0,10-12.18,12.26-20.33,12.26h-1.76l-.59,3.28a36,36,0,0,0-.59,6.13c0,6.21,2.6,8.4,7.39,8.4,3.95,0,8.91-2.94,11.68-12.27l1.17.34c-2.85,10.5-9.15,14.78-19.23,14.78-10.84,0-17.56-5.71-17.56-15.62,0-17.81,10.84-26,25.71-26C618.66,23.1,622.86,26.46,622.86,31.84Zm-12.77-2.52c.42-3.87,0-5.3-1.85-5.3-3.36,0-4.53,5.13-6,12.69L601,43.09c4.12.09,7.48-2.77,8.66-10.5Z" transform="translate(0 0)"/><path class="cls-1" d="M647.47,25l-3.61,18c-1.35,6.63-2,10.08-2,13.27,0,2.6.67,4.54,3,4.54,2.52,0,4.78-3.28,6.8-9.08l1.18.34c-2.44,6.8-5.55,12.68-14.45,12.68-10.67,0-13.27-5.88-13.27-10.83a67.66,67.66,0,0,1,1.68-11.85L630.08,25H624l.26-1h6l1.68-8.4,15.79-3.36h1.93l-2,11.76h8l-.25,1Z" transform="translate(0 0)"/><path class="cls-1" d="M672.92,55.52c0,5.72-3.61,9.24-9.24,9.24-5.12,0-6.8-3.52-6.8-6.46a8.83,8.83,0,0,1,9-8.66H666C670.15,49.64,672.92,51.74,672.92,55.52Z" transform="translate(0 0)"/><path class="cls-1" d="M703.92,56.62c0-4.2-4.46-5.55-9.07-7.4-5.13-2-10.5-4.53-10.5-12.09,0-9.41,9.07-14,21.16-14,6.64,0,15.54,1.34,15.54,8.48,0,3.87-2.77,6.3-7.14,6.3-3,0-6-1.51-6-4.11a6.26,6.26,0,0,1,1.26-4h2.69a5.43,5.43,0,0,0,.59-2.27c0-2.44-2.61-3.19-5.63-3.19-6.47,0-8.74,3.1-8.74,5.71,0,3.44,3.78,5.12,8.07,7C712,39.4,718.7,42,718.7,49c0,10.67-9.83,15.79-22.85,15.79-9.4,0-16.12-2.77-16.12-9.15,0-4.79,3.19-7.14,7-7.14,4.29,0,6.22,2.35,6.22,5.29a12,12,0,0,1-.76,3.7h-3.53a3.73,3.73,0,0,0-.75,2.1c0,1.84,1.68,3.86,7.14,3.86C702.74,63.42,703.92,58.88,703.92,56.62Z" transform="translate(0 0)"/><path class="cls-1" d="M761.46,31.84c0,10-12.18,12.26-20.33,12.26h-1.76l-.59,3.28a36,36,0,0,0-.59,6.13c0,6.21,2.6,8.4,7.39,8.4,3.95,0,8.9-2.94,11.68-12.27l1.17.34c-2.85,10.5-9.15,14.78-19.23,14.78-10.84,0-17.56-5.71-17.56-15.62,0-17.81,10.84-26,25.71-26C757.26,23.1,761.46,26.46,761.46,31.84Zm-12.77-2.52c.42-3.87,0-5.3-1.85-5.3-3.36,0-4.54,5.13-6.05,12.69l-1.26,6.38c4.12.09,7.48-2.77,8.66-10.5Z" transform="translate(0 0)"/></svg>